<?xml version="1.0" standalone="no"?>
<!DOCTYPE svg PUBLIC "-//W3C//DTD SVG 20010904//EN"
 "http://www.w3.org/TR/2001/REC-SVG-20010904/DTD/svg10.dtd">
<svg version="1.0" xmlns="http://www.w3.org/2000/svg"
 width="700.000000pt" height="700.000000pt" viewBox="0 0 700.000000 700.000000"
 preserveAspectRatio="xMidYMid meet">
<metadata>
Created by potrace 1.14, written by Peter Selinger 2001-2017
</metadata>
<g transform="translate(0.000000,700.000000) scale(0.100000,-0.100000)"
fill="#000000" stroke="none">
<path d="M0 3500 l0 -3500 3500 0 3500 0 0 3500 0 3500 -3500 0 -3500 0 0
-3500z m3698 1757 c105 -184 192 -338 192 -343 0 -5 -88 -76 -195 -157 l-195
-148 -195 148 c-107 81 -194 152 -195 157 0 12 383 676 390 676 3 0 92 -150
198 -333z m-488 -862 c149 -113 276 -208 283 -211 8 -3 134 86 290 206 152
115 281 210 285 210 9 0 252 -414 252 -428 0 -4 -184 -148 -410 -320 l-410
-312 -407 310 c-225 171 -409 315 -411 319 -4 12 239 431 250 431 5 0 130 -92
278 -205z m-210 -910 c264 -201 486 -368 493 -371 8 -3 232 161 501 366 268
204 493 373 499 376 10 3 257 -409 257 -429 0 -3 -281 -220 -625 -481 l-625
-476 -612 466 c-337 257 -619 472 -627 479 -12 11 6 47 110 229 79 137 129
214 137 211 7 -2 228 -169 492 -370z m-192 -924 c370 -282 679 -514 686 -517
7 -3 332 238 722 535 539 411 712 537 720 528 25 -27 244 -419 239 -427 -3 -5
-381 -295 -840 -644 l-835 -635 -822 625 c-453 344 -831 634 -841 644 -18 17
-15 24 93 211 62 107 119 204 127 217 l14 23 32 -24 c18 -13 335 -254 705
-536z m-654 -571 l269 -205 -558 -3 c-307 -1 -560 0 -562 2 -3 3 159 288 334
589 2 4 59 -35 126 -86 67 -51 243 -185 391 -297z m3380 86 c92 -159 165 -290
163 -292 -2 -2 -255 -3 -562 -2 l-557 3 388 296 c214 163 392 294 396 290 3
-3 81 -136 172 -295z"/>
</g>
</svg>
